<svg width="313" height="96" viewBox="0 0 313 96" fill="none" xmlns="http://www.w3.org/2000/svg">
<g clip-path="url(#clip0_1_2)">
<path d="M2.464 59V36.44H6.56V45.848H18.176V36.44H22.272V59H18.176V49.272H6.56V59H2.464ZM34.542 59.32C32.7713 59.32 31.246 58.9893 29.966 58.328C28.686 57.6667 27.694 56.728 26.99 55.512C26.3073 54.296 25.966 52.856 25.966 51.192C25.966 49.5707 26.2967 48.152 26.958 46.936C27.6407 45.72 28.5687 44.7707 29.742 44.088C30.9367 43.384 32.2913 43.032 33.806 43.032C36.0247 43.032 37.774 43.736 39.054 45.144C40.3553 46.552 41.006 48.472 41.006 50.904V52.088H29.806C30.1047 54.8827 31.7047 56.28 34.606 56.28C35.4807 56.28 36.3553 56.152 37.23 55.896C38.1047 55.6187 38.9047 55.192 39.63 54.616L40.75 57.304C40.0033 57.9227 39.0647 58.4133 37.934 58.776C36.8033 59.1387 35.6727 59.32 34.542 59.32ZM33.966 45.752C32.7927 45.752 31.8433 46.1147 31.118 46.84C30.3927 47.5653 29.9553 48.5467 29.806 49.784H37.678C37.5927 48.4827 37.23 47.4907 36.59 46.808C35.9713 46.104 35.0967 45.752 33.966 45.752ZM49.3258 59.32C48.1951 59.32 47.1818 59.1067 46.2858 58.68C45.4111 58.232 44.7178 57.6347 44.2057 56.888C43.7151 56.1413 43.4698 55.2987 43.4698 54.36C43.4698 53.208 43.7684 52.3013 44.3658 51.64C44.9631 50.9573 45.9338 50.4667 47.2778 50.168C48.6218 49.8693 50.4244 49.72 52.6858 49.72H53.8058V49.048C53.8058 47.9813 53.5711 47.2133 53.1018 46.744C52.6324 46.2747 51.8431 46.04 50.7338 46.04C49.8591 46.04 48.9631 46.1787 48.0458 46.456C47.1284 46.712 46.2004 47.1173 45.2618 47.672L44.1098 44.952C44.6644 44.568 45.3151 44.2373 46.0618 43.96C46.8298 43.6613 47.6298 43.4373 48.4618 43.288C49.3151 43.1173 50.1151 43.032 50.8618 43.032C53.1444 43.032 54.8404 43.5653 55.9498 44.632C57.0591 45.6773 57.6138 47.3093 57.6138 49.528V59H53.8698V56.504C53.5071 57.3787 52.9311 58.072 52.1418 58.584C51.3524 59.0747 50.4138 59.32 49.3258 59.32ZM50.1578 56.568C51.2031 56.568 52.0671 56.2053 52.7498 55.48C53.4538 54.7547 53.8058 53.8373 53.8058 52.728V52.024H52.7178C50.7124 52.024 49.3151 52.184 48.5258 52.504C47.7578 52.8027 47.3738 53.3573 47.3738 54.168C47.3738 54.872 47.6191 55.448 48.1098 55.896C48.6004 56.344 49.2831 56.568 50.1578 56.568ZM67.1138 59.32C65.2578 59.32 63.8818 58.8187 62.9858 57.816C62.1111 56.792 61.6738 55.2987 61.6738 53.336V36.44H65.6738V53.144C65.6738 55.064 66.4844 56.024 68.1058 56.024C68.3404 56.024 68.5751 56.0133 68.8098 55.992C69.0444 55.9707 69.2684 55.928 69.4818 55.864L69.4178 59.032C68.6498 59.224 67.8818 59.32 67.1138 59.32ZM78.6543 59.32C74.5156 59.32 72.4463 57.272 72.4463 53.176V46.36H69.4383V43.352H72.4463V38.68H76.4463V43.352H81.1823V46.36H76.4463V52.952C76.4463 53.976 76.6703 54.744 77.1183 55.256C77.5663 55.768 78.2916 56.024 79.2943 56.024C79.5929 56.024 79.9023 55.992 80.2223 55.928C80.5423 55.8427 80.8729 55.7573 81.2143 55.672L81.8223 58.616C81.4383 58.8293 80.9476 59 80.3503 59.128C79.7743 59.256 79.2089 59.32 78.6543 59.32ZM83.7675 59V36.44H87.7675V45.624C88.3008 44.7707 89.0155 44.1307 89.9115 43.704C90.8075 43.256 91.7995 43.032 92.8875 43.032C96.5782 43.032 98.4235 45.176 98.4235 49.464V59H94.4235V49.656C94.4235 48.44 94.1888 47.5547 93.7195 47C93.2715 46.4453 92.5675 46.168 91.6075 46.168C90.4342 46.168 89.4955 46.5413 88.7915 47.288C88.1088 48.0133 87.7675 48.984 87.7675 50.2V59H83.7675Z" fill="black"/>
<path d="M168.182 27.0436L167.051 28.6934C166.593 28.3792 166.286 27.8888 166.204 27.3394C166.122 26.79 166.272 26.231 166.618 25.7968L168.182 27.0436ZM173 21.0014L174.078 19.3168C174.555 19.6221 174.88 20.1156 174.973 20.6744C175.066 21.2334 174.917 21.8054 174.564 22.2484L173 21.0014ZM166.255 16.6856L164.691 15.4387C165.33 14.6379 166.47 14.4489 167.333 15.0009L166.255 16.6856ZM161.437 22.7278L163.001 23.9746C162.424 24.6982 161.426 24.9314 160.588 24.5388L161.437 22.7278ZM155.912 20.1382L155.063 21.9492C154.361 21.62 153.912 20.914 153.912 20.1382H155.912ZM155.912 14.0001L155.912 12.0001C157.017 12.0001 157.912 12.8955 157.912 14.0001H155.912ZM147.304 14H145.304C145.304 13.4696 145.515 12.9609 145.89 12.5858C146.265 12.2107 146.774 12 147.304 12V14ZM147.304 20.1382H149.304C149.304 20.8692 148.905 21.5418 148.264 21.8928L147.304 20.1382ZM179 40.0588L180.725 41.0714C180.446 41.5458 179.985 41.8844 179.449 42.0078C178.913 42.1312 178.35 42.0284 177.892 41.7236L179 40.0588ZM187 34.7252L188.965 34.353C189.066 34.884 188.947 35.433 188.636 35.875C188.326 36.3172 187.849 36.6148 187.316 36.7002L187 34.7252ZM185.209 25.2702L184.644 23.3516C185.186 23.1922 185.77 23.2692 186.252 23.5638C186.734 23.8584 187.069 24.343 187.174 24.898L185.209 25.2702ZM171 36.0646L170.258 37.9218C169.41 37.583 168.899 36.7122 169.017 35.8062L171 36.0646ZM158.689 38.8092L160.482 37.9234L161.537 40.0596L159.25 40.7286L158.689 38.8092ZM127.66 23.5914L125.661 23.665L125.587 21.6618L127.591 21.5926L127.66 23.5914ZM128.01 33.0948L128.079 35.0936L126.084 35.1624L126.011 33.1684L128.01 33.0948ZM178.272 37.6186C182.281 41.1654 183.784 46.0104 183.614 51.0534C183.446 56.0566 181.642 61.3488 178.935 66.1372C176.223 70.9354 172.535 75.352 168.45 78.59C164.392 81.8056 159.758 84 155.18 84V80C158.517 80 162.293 78.3656 165.965 75.4552C169.609 72.5668 172.971 68.5598 175.453 64.1688C177.94 59.7678 179.475 55.1048 179.616 50.9188C179.756 46.7724 178.537 43.194 175.621 40.6146L178.272 37.6186ZM155.18 84C150.614 84 145.861 81.817 141.652 78.5852C137.412 75.329 133.528 70.8626 130.682 65.9466C125.089 56.287 123.047 43.8656 132.089 35.8682L134.739 38.8642C127.919 44.8966 128.846 54.7924 134.144 63.9422C136.743 68.431 140.285 72.4924 144.088 75.4128C147.923 78.3576 151.832 80 155.18 80V84ZM132.089 35.8682C133.237 34.8528 134.131 34.325 135.109 33.831C136.051 33.3544 136.924 32.974 138.334 32.1428L140.366 35.5882C138.807 36.5074 137.702 37.0022 136.913 37.4008C136.159 37.7818 135.57 38.1292 134.739 38.8642L132.089 35.8682ZM157.378 37.099C160.357 36.1236 164.222 35.171 167.943 34.9578C171.572 34.7498 175.554 35.2148 178.272 37.6186L175.621 40.6146C174.131 39.2964 171.524 38.759 168.172 38.9512C164.915 39.138 161.409 39.988 158.622 40.9004L157.378 37.099ZM166.618 25.7968L171.436 19.7545L174.564 22.2484L169.746 28.2906L166.618 25.7968ZM171.922 22.686L165.177 18.3702L167.333 15.0009L174.078 19.3168L171.922 22.686ZM167.819 17.9325L163.001 23.9746L159.873 21.4808L164.691 15.4387L167.819 17.9325ZM160.588 24.5388L155.063 21.9492L156.761 18.3273L162.286 20.9168L160.588 24.5388ZM153.912 20.1382V14.0001H157.912V20.1382H153.912ZM155.912 16.0001L147.304 16V12L155.912 12.0001L155.912 16.0001ZM149.304 14V20.1382H145.304V14H149.304ZM147.304 20.1382C148.264 21.8928 148.264 21.8932 148.264 21.8928C148.264 21.893 148.264 21.8928 148.264 21.8928C148.264 21.8926 148.267 21.8914 148.267 21.8912C148.268 21.8906 148.269 21.8902 148.269 21.89C148.27 21.8892 148.271 21.889 148.271 21.889C148.271 21.8888 148.268 21.8904 148.264 21.8928C148.256 21.8976 148.24 21.9068 148.215 21.9212C148.167 21.95 148.087 21.9978 147.983 22.0648C147.774 22.1992 147.466 22.4084 147.102 22.6914C146.368 23.2616 145.433 24.109 144.604 25.2222L141.396 22.834C142.494 21.3576 143.711 20.26 144.648 19.5326C145.118 19.167 145.525 18.8892 145.822 18.6987C145.971 18.6034 146.092 18.5295 146.181 18.4771C146.225 18.4509 146.262 18.43 146.289 18.4144C146.303 18.4066 146.314 18.4001 146.323 18.395C146.328 18.3924 146.332 18.3902 146.336 18.3883C146.337 18.3874 146.339 18.3865 146.34 18.3857C146.341 18.3853 146.342 18.3849 146.342 18.3846C146.342 18.3847 146.343 18.3844 146.342 18.3846C146.343 18.3843 146.344 18.3836 147.304 20.1382ZM170.074 33.3176C169.629 31.7318 168.844 30.552 168.17 29.7684C167.833 29.3776 167.529 29.0916 167.319 28.9106C167.215 28.8202 167.135 28.757 167.087 28.7206C167.063 28.7024 167.048 28.691 167.041 28.6864C167.038 28.6842 167.037 28.6836 167.039 28.6848C167.04 28.6854 167.041 28.6864 167.043 28.6878C167.044 28.6884 167.046 28.6894 167.047 28.6902C167.048 28.6906 167.048 28.6912 167.049 28.6918C167.049 28.6918 167.049 28.692 167.049 28.6918C167.05 28.6924 167.051 28.6934 168.182 27.0436C169.313 25.3938 169.313 25.3944 169.314 25.3948C169.313 25.3946 169.314 25.395 169.314 25.3948C169.315 25.3956 169.317 25.397 169.318 25.3976C169.32 25.399 169.322 25.4006 169.325 25.4022C169.329 25.4054 169.335 25.4092 169.341 25.4134C169.353 25.422 169.368 25.4324 169.385 25.4448C169.419 25.4696 169.463 25.5022 169.516 25.5428C169.623 25.624 169.765 25.7374 169.933 25.883C170.27 26.174 170.718 26.5978 171.2 27.158C172.164 28.2764 173.288 29.9636 173.926 32.237L170.074 33.3176ZM179 40.0588C177.275 39.0462 177.276 39.0456 177.276 39.0448C177.276 39.0452 177.276 39.0446 177.276 39.0448C177.277 39.0436 177.278 39.0412 177.279 39.04C177.28 39.0376 177.282 39.035 177.284 39.032C177.287 39.0262 177.291 39.0192 177.296 39.0112C177.306 38.9952 177.318 38.975 177.333 38.9506C177.364 38.9022 177.405 38.8374 177.457 38.7588C177.561 38.6016 177.71 38.3876 177.904 38.1334C178.291 37.6262 178.864 36.9502 179.629 36.2446C181.153 34.8376 183.5 33.2598 186.684 32.7504L187.316 36.7002C185.127 37.0502 183.474 38.1392 182.342 39.1842C181.778 39.7044 181.358 40.2006 181.085 40.5594C180.948 40.738 180.85 40.8802 180.79 40.971C180.76 41.0164 180.739 41.0488 180.728 41.0662C180.723 41.0748 180.72 41.0798 180.719 41.0808C180.718 41.0824 180.719 41.0812 180.719 41.0808C180.72 41.08 180.721 41.0774 180.722 41.0762C180.722 41.0756 180.723 41.0748 180.723 41.074C180.723 41.0742 180.723 41.0736 180.723 41.074C180.724 41.0734 180.725 41.0714 179 40.0588ZM185.035 35.0974L183.244 25.6424L187.174 24.898L188.965 34.353L185.035 35.0974ZM185.209 25.2702C185.774 27.1888 185.774 27.1888 185.774 27.1886C185.774 27.1888 185.773 27.189 185.771 27.1898C185.767 27.191 185.76 27.193 185.749 27.1962C185.729 27.2024 185.697 27.2122 185.653 27.2258C185.565 27.253 185.433 27.295 185.261 27.3516C184.918 27.4646 184.421 27.6354 183.819 27.8618C182.61 28.3164 181.003 28.9864 179.383 29.8526C177.751 30.7252 176.18 31.757 174.991 32.9118C173.793 34.075 173.127 35.2196 172.983 36.3228L169.017 35.8062C169.321 33.4712 170.654 31.5474 172.205 30.0422C173.764 28.5282 175.69 27.2914 177.497 26.325C179.318 25.352 181.095 24.6128 182.411 24.118C183.071 23.8696 183.621 23.6806 184.009 23.5526C184.203 23.4884 184.358 23.4396 184.466 23.406C184.52 23.3892 184.562 23.3764 184.592 23.3672C184.607 23.3628 184.619 23.3592 184.628 23.3566C184.632 23.3552 184.636 23.3542 184.638 23.3534C184.64 23.353 184.641 23.3526 184.642 23.3522C184.642 23.3522 184.642 23.3522 184.642 23.3522C184.642 23.352 184.644 23.3516 185.209 25.2702ZM171.742 34.2072C174.326 35.2394 176.398 36.2734 177.832 37.0542C178.549 37.445 179.108 37.7728 179.492 38.0066C179.684 38.1234 179.833 38.2168 179.936 38.2826C179.988 38.3156 180.028 38.3416 180.057 38.3604C180.071 38.3698 180.083 38.3772 180.091 38.3828C180.096 38.3858 180.099 38.388 180.102 38.39C180.104 38.3908 180.105 38.3916 180.106 38.3924C180.105 38.3922 180.106 38.3926 180.106 38.3924C180.106 38.3926 180.108 38.3936 180.108 38.3936C180.108 38.3938 180.108 38.394 179 40.0588C177.892 41.7236 177.891 41.7234 177.892 41.7236C177.891 41.7236 177.892 41.7238 177.892 41.7236C177.889 41.7216 177.882 41.7172 177.873 41.7116C177.855 41.7 177.826 41.6812 177.786 41.6556C177.706 41.6046 177.581 41.5262 177.414 41.4246C177.08 41.2214 176.576 40.9252 175.918 40.567C174.602 39.85 172.674 38.8868 170.258 37.9218L171.742 34.2072ZM146.902 41.7328C145.074 38.8274 143.14 37.2844 140.991 36.2896L142.671 32.6596C145.553 33.9936 148.067 36.0728 150.288 39.6028L146.902 41.7328ZM159.25 40.7286C156.769 41.4546 153.875 42.6224 152.058 43.3958L150.491 39.7154C152.339 38.9288 155.41 37.6844 158.127 36.8896L159.25 40.7286ZM147.335 24.5546C153.188 27.2636 157.16 31.1974 160.482 37.9234L156.895 39.6948C153.932 33.6948 150.589 30.4684 145.655 28.1846L147.335 24.5546ZM127.591 21.5926C135.096 21.3336 141.694 21.9436 147.335 24.5546L145.655 28.1846C140.861 25.9658 135.011 25.339 127.729 25.5902L127.591 21.5926ZM126.011 33.1684L125.661 23.665L129.658 23.5178L130.008 33.0212L126.011 33.1684ZM140.991 36.2896C138.396 35.0886 134.964 34.856 128.079 35.0936L127.941 31.096C134.7 30.8628 139.084 30.999 142.671 32.6596L140.991 36.2896ZM150.288 39.6028C150.322 39.657 150.372 39.694 150.422 39.7106C150.467 39.7258 150.486 39.7176 150.491 39.7154L152.058 43.3958C150.108 44.2256 147.95 43.3992 146.902 41.7328L150.288 39.6028ZM155.37 61.3758L154.545 63.2826L150.873 61.6942L151.699 59.7874L155.37 61.3758ZM154.704 62.6246L154.144 70.831L150.154 70.5588L150.714 62.3522L154.704 62.6246ZM152.478 64.4752L143.966 63.487L144.428 59.5136L152.94 60.5018L152.478 64.4752ZM150.815 40.1608L155.472 50.2362L151.842 51.9144L147.185 41.8392L150.815 40.1608ZM155.584 50.5386L156.007 52.0594L152.154 53.1328L151.73 51.612L155.584 50.5386ZM154.481 49.253L163.186 53.1896L161.538 56.8342L152.833 52.8976L154.481 49.253ZM161.903 53.0652L170.577 51.0218L171.494 54.9152L162.82 56.9586L161.903 53.0652ZM164.222 54.2762L167.179 61.7528L163.46 63.2242L160.502 55.7476L164.222 54.2762ZM151.699 59.7874C152.607 57.6866 152.768 55.3378 152.154 53.1328L156.007 52.0594C156.867 55.1464 156.642 58.4348 155.37 61.3758L151.699 59.7874Z" fill="#19ABB4"/>
<path d="M215.464 59V36.44H218.536L230.664 52.184V36.44H234.472V59H231.432L219.272 43.192V59H215.464ZM244.17 59.32C243.039 59.32 242.026 59.1067 241.13 58.68C240.255 58.232 239.562 57.6347 239.049 56.888C238.559 56.1413 238.314 55.2987 238.314 54.36C238.314 53.208 238.612 52.3013 239.21 51.64C239.807 50.9573 240.778 50.4667 242.122 50.168C243.466 49.8693 245.268 49.72 247.53 49.72H248.65V49.048C248.65 47.9813 248.415 47.2133 247.946 46.744C247.476 46.2747 246.687 46.04 245.578 46.04C244.703 46.04 243.807 46.1787 242.89 46.456C241.972 46.712 241.044 47.1173 240.106 47.672L238.954 44.952C239.508 44.568 240.159 44.2373 240.906 43.96C241.674 43.6613 242.474 43.4373 243.306 43.288C244.159 43.1173 244.959 43.032 245.706 43.032C247.988 43.032 249.684 43.5653 250.794 44.632C251.903 45.6773 252.458 47.3093 252.458 49.528V59H248.714V56.504C248.351 57.3787 247.775 58.072 246.986 58.584C246.196 59.0747 245.258 59.32 244.17 59.32ZM245.002 56.568C246.047 56.568 246.911 56.2053 247.594 55.48C248.298 54.7547 248.65 53.8373 248.65 52.728V52.024H247.562C245.556 52.024 244.159 52.184 243.37 52.504C242.602 52.8027 242.218 53.3573 242.218 54.168C242.218 54.872 242.463 55.448 242.954 55.896C243.444 56.344 244.127 56.568 245.002 56.568ZM263.686 59.32C259.547 59.32 257.478 57.272 257.478 53.176V46.36H254.47V43.352H257.478V38.68H261.478V43.352H266.214V46.36H261.478V52.952C261.478 53.976 261.702 54.744 262.15 55.256C262.598 55.768 263.323 56.024 264.326 56.024C264.624 56.024 264.934 55.992 265.254 55.928C265.574 55.8427 265.904 55.7573 266.246 55.672L266.854 58.616C266.47 58.8293 265.979 59 265.382 59.128C264.806 59.256 264.24 59.32 263.686 59.32ZM268.543 39.992V36.088H273.023V39.992H268.543ZM268.799 59V43.352H272.799V59H268.799ZM284.091 59.32C282.47 59.32 281.062 58.9893 279.867 58.328C278.672 57.6667 277.744 56.728 277.083 55.512C276.422 54.2747 276.091 52.824 276.091 51.16C276.091 49.496 276.422 48.056 277.083 46.84C277.744 45.624 278.672 44.6853 279.867 44.024C281.062 43.3627 282.47 43.032 284.091 43.032C285.712 43.032 287.12 43.3627 288.315 44.024C289.51 44.6853 290.438 45.624 291.099 46.84C291.76 48.056 292.091 49.496 292.091 51.16C292.091 52.824 291.76 54.2747 291.099 55.512C290.438 56.728 289.51 57.6667 288.315 58.328C287.12 58.9893 285.712 59.32 284.091 59.32ZM284.091 56.28C285.286 56.28 286.246 55.8533 286.971 55C287.696 54.1253 288.059 52.8453 288.059 51.16C288.059 49.4533 287.696 48.184 286.971 47.352C286.246 46.4987 285.286 46.072 284.091 46.072C282.896 46.072 281.936 46.4987 281.211 47.352C280.486 48.184 280.123 49.4533 280.123 51.16C280.123 52.8453 280.486 54.1253 281.211 55C281.936 55.8533 282.896 56.28 284.091 56.28ZM295.393 59V43.352H299.297V45.784C299.83 44.888 300.545 44.2053 301.441 43.736C302.358 43.2667 303.382 43.032 304.513 43.032C308.203 43.032 310.049 45.176 310.049 49.464V59H306.049V49.656C306.049 48.44 305.814 47.5547 305.345 47C304.897 46.4453 304.193 46.168 303.233 46.168C302.059 46.168 301.121 46.5413 300.417 47.288C299.734 48.0133 299.393 48.984 299.393 50.2V59H295.393Z" fill="black"/>
</g>
<defs>
<clipPath id="clip0_1_2">
<rect width="313" height="96" fill="white"/>
</clipPath>
</defs>
</svg>
