<svg width="25" height="24" viewBox="0 0 25 24" fill="none" xmlns="http://www.w3.org/2000/svg">
<path d="M10.5 15C9.84732 15.6994 9.48919 16.6234 9.5 17.58V21M14.5 15C15.1527 15.6994 15.5108 16.6234 15.5 17.58V21M9.5 19.05C8.60549 19.4062 7.63532 19.5301 6.68 19.41C5.16 18.89 5.56 17.51 4.78 16.94C4.40518 16.672 3.96037 16.5191 3.5 16.5M19.5 9.75C19.5 12.75 17.55 15 12.5 15C7.45 15 5.5 12.75 5.5 9.75C5.4753 8.70917 5.70893 7.67845 6.18 6.75C5.84 5.28 5.97 3.47 6.7 3.11C7.43 2.75 8.97 3.41 10.24 4.26C10.986 4.12688 11.7422 4.05995 12.5 4.06C13.2572 4.05335 14.0134 4.11358 14.76 4.24C16.03 3.39 17.64 2.76 18.3 3.09C18.96 3.42 19.16 5.26 18.82 6.73C19.2943 7.66444 19.528 8.70245 19.5 9.75Z" stroke="#051F21" stroke-width="1.5" stroke-linecap="round" stroke-linejoin="round"/>
</svg>
