<svg width="25" height="24" viewBox="0 0 25 24" fill="none" xmlns="http://www.w3.org/2000/svg">
<path d="M12.5 15.5C14.433 15.5 16 13.933 16 12C16 10.067 14.433 8.5 12.5 8.5C10.567 8.5 9 10.067 9 12C9 13.933 10.567 15.5 12.5 15.5Z" stroke="#051F21" stroke-width="1.5" stroke-miterlimit="10" stroke-linecap="round" stroke-linejoin="round"/>
<path d="M21.5 12.5294C21.5 18.5 19.5 21 12.5 21C5.5 21 3.5 19 3.5 12C3.5 5.5 5.5 3 12.5 3C20 3 21.5 5.5 21.5 12.5294Z" stroke="#051F21" stroke-width="1.5" stroke-linecap="round" stroke-linejoin="round"/>
<path d="M17 7.5C17.2761 7.5 17.5 7.27614 17.5 7C17.5 6.72386 17.2761 6.5 17 6.5C16.7239 6.5 16.5 6.72386 16.5 7C16.5 7.27614 16.7239 7.5 17 7.5Z" fill="#051F21" stroke="#051F21" stroke-width="1.5" stroke-linecap="round" stroke-linejoin="round"/>
</svg>
