<svg width="96" height="96" viewBox="0 0 96 96" fill="none" xmlns="http://www.w3.org/2000/svg">
<path d="M59.182 27.0436L58.0514 28.6934C57.5932 28.3792 57.2862 27.8888 57.204 27.3394C57.1218 26.79 57.272 26.231 57.6184 25.7968L59.182 27.0436ZM64 21.0014L65.078 19.3168C65.5552 19.6221 65.8804 20.1156 65.973 20.6744C66.0658 21.2334 65.917 21.8054 65.5638 22.2484L64 21.0014ZM57.2548 16.6856L55.6912 15.4387C56.3298 14.6379 57.47 14.4489 58.3328 15.0009L57.2548 16.6856ZM52.437 22.7278L54.0006 23.9746C53.4238 24.6982 52.426 24.9314 51.5882 24.5388L52.437 22.7278ZM46.912 20.1382L46.0632 21.9492C45.3608 21.62 44.912 20.914 44.912 20.1382H46.912ZM46.912 14.0001L46.9122 12.0001C48.0166 12.0001 48.912 12.8955 48.912 14.0001H46.912ZM38.304 14H36.304C36.304 13.4696 36.5148 12.9609 36.8898 12.5858C37.265 12.2107 37.7736 12 38.304 12V14ZM38.304 20.1382H40.304C40.304 20.8692 39.9052 21.5418 39.264 21.8928L38.304 20.1382ZM70 40.0588L71.7246 41.0714C71.4462 41.5458 70.9846 41.8844 70.4486 42.0078C69.9126 42.1312 69.3496 42.0284 68.8916 41.7236L70 40.0588ZM78 34.7252L79.965 34.353C80.0656 34.884 79.9471 35.433 79.6364 35.875C79.3258 36.3172 78.8495 36.6148 78.3159 36.7002L78 34.7252ZM76.2089 25.2702L75.6444 23.3516C76.1862 23.1922 76.7702 23.2692 77.2521 23.5638C77.734 23.8584 78.0689 24.343 78.174 24.898L76.2089 25.2702ZM62 36.0646L61.2582 37.9218C60.4096 37.583 59.8988 36.7122 60.0168 35.8062L62 36.0646ZM49.6886 38.8092L51.4818 37.9234L52.537 40.0596L50.2502 40.7286L49.6886 38.8092ZM18.6598 23.5914L16.6612 23.665L16.5874 21.6618L18.5908 21.5926L18.6598 23.5914ZM19.0096 33.0948L19.0786 35.0936L17.0844 35.1624L17.011 33.1684L19.0096 33.0948ZM69.2718 37.6186C73.2814 41.1654 74.7838 46.0104 74.614 51.0534C74.4458 56.0566 72.6416 61.3488 69.935 66.1372C67.2228 70.9354 63.535 75.352 59.4496 78.59C55.3924 81.8056 50.7584 84 46.1802 84V80C49.5172 80 53.2928 78.3656 56.965 75.4552C60.6092 72.5668 63.9708 68.5598 66.4528 64.1688C68.9404 59.7678 70.4754 55.1048 70.6164 50.9188C70.7558 46.7724 69.5374 43.194 66.6214 40.6146L69.2718 37.6186ZM46.1802 84C41.6136 84 36.8608 81.817 32.6522 78.5852C28.4116 75.329 24.5284 70.8626 21.682 65.9466C16.0888 56.287 14.0472 43.8656 23.0886 35.8682L25.7388 38.8642C18.919 44.8966 19.8456 54.7924 25.1436 63.9422C27.7426 68.431 31.2854 72.4924 35.0884 75.4128C38.9234 78.3576 42.8316 80 46.1802 80V84ZM23.0886 35.8682C24.2366 34.8528 25.1312 34.325 26.1086 33.831C27.0514 33.3544 27.9244 32.974 29.3342 32.1428L31.366 35.5882C29.8074 36.5074 28.7016 37.0022 27.9132 37.4008C27.1592 37.7818 26.5698 38.1292 25.7388 38.8642L23.0886 35.8682ZM48.3776 37.099C51.3572 36.1236 55.2216 35.171 58.9434 34.9578C62.5716 34.7498 66.5544 35.2148 69.2718 37.6186L66.6214 40.6146C65.1312 39.2964 62.524 38.759 59.1724 38.9512C55.9146 39.138 52.4092 39.988 49.6224 40.9004L48.3776 37.099ZM57.6184 25.7968L62.4362 19.7545L65.5638 22.2484L60.7458 28.2906L57.6184 25.7968ZM62.922 22.686L56.177 18.3702L58.3328 15.0009L65.078 19.3168L62.922 22.686ZM58.8186 17.9325L54.0006 23.9746L50.8732 21.4808L55.6912 15.4387L58.8186 17.9325ZM51.5882 24.5388L46.0632 21.9492L47.7608 18.3273L53.2858 20.9168L51.5882 24.5388ZM44.912 20.1382V14.0001H48.912V20.1382H44.912ZM46.912 16.0001L38.304 16V12L46.9122 12.0001L46.912 16.0001ZM40.304 14V20.1382H36.304V14H40.304ZM38.304 20.1382C39.264 21.8928 39.2636 21.8932 39.264 21.8928C39.2642 21.8928 39.2638 21.893 39.264 21.8928C39.2644 21.8926 39.2666 21.8914 39.267 21.8912C39.2678 21.8906 39.2686 21.8902 39.269 21.89C39.2702 21.8892 39.2708 21.889 39.2708 21.889C39.271 21.8888 39.268 21.8904 39.264 21.8928C39.2556 21.8976 39.2396 21.9068 39.2154 21.9212C39.1666 21.95 39.0874 21.9978 38.983 22.0648C38.7738 22.1992 38.466 22.4084 38.1018 22.6914C37.3678 23.2616 36.4328 24.109 35.6044 25.2222L32.3956 22.834C33.4944 21.3576 34.7114 20.26 35.6478 19.5326C36.1184 19.167 36.5254 18.8892 36.8222 18.6987C36.9706 18.6034 37.0922 18.5295 37.181 18.4771C37.2254 18.4509 37.2616 18.43 37.289 18.4144C37.3028 18.4066 37.3142 18.4001 37.3234 18.395C37.328 18.3924 37.332 18.3902 37.3356 18.3883C37.3372 18.3874 37.3388 18.3865 37.3402 18.3857C37.341 18.3853 37.3416 18.3849 37.3422 18.3846C37.3426 18.3844 37.342 18.3847 37.3422 18.3846C37.3426 18.3843 37.3442 18.3836 38.304 20.1382ZM61.0744 33.3176C60.6294 31.7318 59.8444 30.552 59.1696 29.7684C58.8328 29.3776 58.5288 29.0916 58.3192 28.9106C58.2146 28.8202 58.1346 28.757 58.087 28.7206C58.0632 28.7024 58.0476 28.691 58.0414 28.6864C58.0382 28.6842 58.0374 28.6836 58.039 28.6848C58.0398 28.6854 58.0412 28.6864 58.0434 28.6878C58.0444 28.6884 58.0456 28.6894 58.0468 28.6902C58.0476 28.6906 58.0482 28.6912 58.049 28.6918C58.0494 28.692 58.0488 28.6918 58.049 28.6918C58.0496 28.6924 58.0514 28.6934 59.182 27.0436C60.3128 25.3938 60.3134 25.3944 60.314 25.3948C60.3142 25.395 60.3134 25.3946 60.314 25.3948C60.3148 25.3956 60.3172 25.397 60.3182 25.3976C60.3202 25.399 60.3224 25.4006 60.3248 25.4022C60.3294 25.4054 60.3348 25.4092 60.3408 25.4134C60.3528 25.422 60.3676 25.4324 60.3848 25.4448C60.419 25.4696 60.4632 25.5022 60.5164 25.5428C60.6226 25.624 60.7648 25.7374 60.9334 25.883C61.2704 26.174 61.7178 26.5978 62.2002 27.158C63.1636 28.2764 64.2876 29.9636 64.9256 32.237L61.0744 33.3176ZM70 40.0588C68.2754 39.0462 68.2758 39.0456 68.2762 39.0448C68.2762 39.0446 68.276 39.0452 68.2762 39.0448C68.2768 39.0436 68.2784 39.0412 68.279 39.04C68.2804 39.0376 68.282 39.035 68.2838 39.032C68.2872 39.0262 68.2914 39.0192 68.2962 39.0112C68.3058 38.9952 68.3182 38.975 68.3334 38.9506C68.3636 38.9022 68.4048 38.8374 68.457 38.7588C68.5614 38.6016 68.7102 38.3876 68.9042 38.1334C69.291 37.6262 69.864 36.9502 70.6286 36.2446C72.1532 34.8376 74.4996 33.2598 77.6841 32.7504L78.3159 36.7002C76.1273 37.0502 74.4738 38.1392 73.3416 39.1842C72.7776 39.7044 72.3582 40.2006 72.0846 40.5594C71.9482 40.738 71.85 40.8802 71.7896 40.971C71.7596 41.0164 71.739 41.0488 71.7282 41.0662C71.7228 41.0748 71.7198 41.0798 71.7192 41.0808C71.7188 41.0812 71.7182 41.0824 71.7192 41.0808C71.7196 41.08 71.7212 41.0774 71.722 41.0762C71.7224 41.0756 71.7228 41.0748 71.7232 41.074C71.7234 41.0736 71.723 41.0742 71.7232 41.074C71.7236 41.0734 71.7246 41.0714 70 40.0588ZM76.0349 35.0974L74.2438 25.6424L78.174 24.898L79.965 34.353L76.0349 35.0974ZM76.2089 25.2702C76.7736 27.1888 76.7739 27.1888 76.7743 27.1886C76.7738 27.1888 76.7729 27.189 76.7709 27.1898C76.7668 27.191 76.7596 27.193 76.7494 27.1962C76.729 27.2024 76.6966 27.2122 76.6528 27.2258C76.5652 27.253 76.4326 27.295 76.2612 27.3516C75.918 27.4646 75.4208 27.6354 74.8188 27.8618C73.61 28.3164 72.0034 28.9864 70.3832 29.8526C68.7508 30.7252 67.1804 31.757 65.9912 32.9118C64.7934 34.075 64.127 35.2196 63.9832 36.3228L60.0168 35.8062C60.3208 33.4712 61.6544 31.5474 63.2046 30.0422C64.7636 28.5282 66.6896 27.2914 68.4974 26.325C70.3176 25.352 72.0952 24.6128 73.4106 24.118C74.0708 23.8696 74.6206 23.6806 75.009 23.5526C75.2034 23.4884 75.3578 23.4396 75.4656 23.406C75.5196 23.3892 75.562 23.3764 75.592 23.3672C75.607 23.3628 75.619 23.3592 75.6278 23.3566C75.6322 23.3552 75.6356 23.3542 75.6384 23.3534C75.6398 23.353 75.641 23.3526 75.642 23.3522C75.6424 23.3522 75.6416 23.3522 75.642 23.3522C75.6424 23.352 75.6444 23.3516 76.2089 25.2702ZM62.7418 34.2072C65.3262 35.2394 67.398 36.2734 68.8316 37.0542C69.5488 37.445 70.1076 37.7728 70.492 38.0066C70.6842 38.1234 70.833 38.2168 70.9364 38.2826C70.988 38.3156 71.0284 38.3416 71.057 38.3604C71.0714 38.3698 71.083 38.3772 71.0914 38.3828C71.0958 38.3858 71.0992 38.388 71.102 38.39C71.1036 38.3908 71.1048 38.3916 71.1058 38.3924C71.1062 38.3926 71.1054 38.3922 71.1058 38.3924C71.106 38.3926 71.1076 38.3936 71.1078 38.3936C71.108 38.3938 71.1084 38.394 70 40.0588C68.8916 41.7236 68.8914 41.7234 68.8916 41.7236C68.8918 41.7238 68.8914 41.7236 68.8916 41.7236C68.8886 41.7216 68.882 41.7172 68.8732 41.7116C68.8554 41.7 68.8264 41.6812 68.7864 41.6556C68.706 41.6046 68.5814 41.5262 68.4144 41.4246C68.08 41.2214 67.5762 40.9252 66.9184 40.567C65.602 39.85 63.6738 38.8868 61.2582 37.9218L62.7418 34.2072ZM37.9018 41.7328C36.074 38.8274 34.1402 37.2844 31.9912 36.2896L33.6714 32.6596C36.5532 33.9936 39.0668 36.0728 41.2876 39.6028L37.9018 41.7328ZM50.2502 40.7286C47.7688 41.4546 44.875 42.6224 43.0578 43.3958L41.4914 39.7154C43.3392 38.9288 46.4104 37.6844 49.127 36.8896L50.2502 40.7286ZM38.335 24.5546C44.1876 27.2636 48.1596 31.1974 51.4818 37.9234L47.8954 39.6948C44.9316 33.6948 41.5888 30.4684 36.6546 28.1846L38.335 24.5546ZM18.5908 21.5926C26.0962 21.3336 32.694 21.9436 38.335 24.5546L36.6546 28.1846C31.861 25.9658 26.0108 25.339 18.7288 25.5902L18.5908 21.5926ZM17.011 33.1684L16.6612 23.665L20.6584 23.5178L21.0082 33.0212L17.011 33.1684ZM31.9912 36.2896C29.3962 35.0886 25.964 34.856 19.0786 35.0936L18.9406 31.096C25.7 30.8628 30.0836 30.999 33.6714 32.6596L31.9912 36.2896ZM41.2876 39.6028C41.3216 39.657 41.3724 39.694 41.4216 39.7106C41.4666 39.7258 41.4862 39.7176 41.4914 39.7154L43.0578 43.3958C41.1084 44.2256 38.9504 43.3992 37.9018 41.7328L41.2876 39.6028ZM46.3696 61.3758L45.5446 63.2826L41.8734 61.6942L42.6986 59.7874L46.3696 61.3758ZM45.7044 62.6246L45.1444 70.831L41.1538 70.5588L41.7136 62.3522L45.7044 62.6246ZM43.4784 64.4752L34.9664 63.487L35.4276 59.5136L43.9396 60.5018L43.4784 64.4752ZM41.8154 40.1608L46.4724 50.2362L42.8416 51.9144L38.1846 41.8392L41.8154 40.1608ZM46.5836 50.5386L47.0072 52.0594L43.154 53.1328L42.7304 51.612L46.5836 50.5386ZM45.481 49.253L54.1858 53.1896L52.5376 56.8342L43.8328 52.8976L45.481 49.253ZM52.9032 53.0652L61.5766 51.0218L62.4938 54.9152L53.8204 56.9586L52.9032 53.0652ZM55.2216 54.2762L58.1794 61.7528L54.4598 63.2242L51.502 55.7476L55.2216 54.2762ZM42.6986 59.7874C43.6074 57.6866 43.7682 55.3378 43.154 53.1328L47.0072 52.0594C47.8672 55.1464 47.6422 58.4348 46.3696 61.3758L42.6986 59.7874Z" fill="#19ABB4"/>
</svg>
